# xmcd CD database file
#
# Track frame offsets:
#	182
#	13745
#	25832
#	40520
#	54157
#	67132
#	80520
#	93795
#	107395
#	121095
#	134532
#	148270
#
# Disc length: 2166 seconds
#
# Revision: 0
# Processed by: cddbd v1.5PL3 Copyright (c) Steve Scherf et al.
# Submitted via: CDex 1.50Beta7
#
DISCID=9608740c
DTITLE=Jack Teagarden - A Teagarden Party
DYEAR=1900
DGENRE=Jazz
TTITLE0=muddy river blues
TTITLE1=wolverine blues
TTITLE2=you rascal you
TTITLE3=love me
TTITLE4=I just couldn't take it baby
TTITLE5=a hundred years from today
TTITLE6=blue river
TTITLE7=ol'pappy
TTITLE8=fare-the-well to harlem
TTITLE9=stars fell on alabama
TTITLE10=junk man
TTITLE11=gottta right to sing the blues
EXTD=
EXTT0=
EXTT1=
EXTT2=
EXTT3=
EXTT4=
EXTT5=
EXTT6=
EXTT7=
EXTT8=
EXTT9=
EXTT10=
EXTT11=
PLAYORDER=
